<svg height="512" viewBox="0 0 58 59" width="512" xmlns="http://www.w3.org/2000/svg"><g id="Page-1" fill="none" fill-rule="evenodd"><g id="029---Sword-and-Shield" fill="rgb(0,0,0)" fill-rule="nonzero"><path id="Shape" d="m14 38h-2.832l4.717-28.1c.0739317-.55428819-.0773433-1.11508633-.42-1.557l-5.9-7.573c-.37265441-.48555813-.9499232-.77020185-1.562-.77020185s-1.18934559.28464372-1.562.77020185l-5.9 7.573c-.34265668.44191367-.49393171 1.00271181-.42 1.557l4.711 28.1h-2.832c-1.1045695 0-2 .8954305-2 2s.8954305 2 2 2h12c1.1045695 0 2-.8954305 2-2s-.8954305-2-2-2zm-7-32c0-.55228475.44771525-1 1-1s1 .44771525 1 1v1c0 .55228475-.44771525 1-1 1s-1-.44771525-1-1zm0 5c0-.5522847.44771525-1 1-1s1 .4477153 1 1v12c0 .5522847-.44771525 1-1 1s-1-.4477153-1-1z"/><path id="Shape" d="m5 56c0 1.6568542 1.34314575 3 3 3s3-1.3431458 3-3v-2h-6z"/><path id="Rectangle-path" d="m5 44h6v3h-6z"/><path id="Rectangle-path" d="m5 49h6v3h-6z"/><path id="Shape" d="m31.589 26c.8166663-2.0041247 2.4068753-3.5943337 4.411-4.411v-7.469c-3.3146161 1.5045666-6.8759275 2.3917598-10.509 2.618-.399622 3.0701155-.547115 6.1678044-.441 9.262z"/><path id="Shape" d="m38 21.069c.6634928-.0919984 1.3365072-.0919984 2 0v-8.01c-.334-.2-.671-.382-1-.6-.329.218-.666.4-1 .6z"/><circle id="Oval" cx="39" cy="29" r="6"/><path id="Shape" d="m25.169 28c.056.663.133 1.331.224 2h5.676c-.0919984-.6634928-.0919984-1.3365072 0-2z"/><path id="Shape" d="m42 21.589c2.0041247.8166663 3.5943337 2.4068753 4.411 4.411h6.539c.106115-3.0941956-.041378-6.1918845-.441-9.262-3.63298-.2268394-7.1941845-1.1140059-10.509-2.618z"/><path id="Shape" d="m52.607 30c.091-.669.168-1.337.224-2h-5.9c.0919984.6634928.0919984 1.3365072 0 2z"/><path id="Shape" d="m46.411 32c-.8166663 2.0041247-2.4068753 3.5943337-4.411 4.411v9.6c2.8251451-1.0730532 5.2509155-2.9907632 6.947-5.492 1.6764037-2.5841677 2.8087636-5.4827778 3.328-8.519z"/><path id="Shape" d="m56.909 12.608c-.0902136-.48181-.5191215-.8252764-1.009-.808-2.588.1-10.646-.028-16.2-5.122-.3925671-.36607247-1.0014329-.36607247-1.394 0-5.556 5.096-13.614 5.228-16.206 5.122-.4907376-.0194633-.9217028.323437-1.013.806-1.063 5.46-5.754 35.219 17.913 39.394 23.667-4.175 18.976-33.934 17.909-39.392zm-6.309 29.039c-2.6605965 3.8633741-6.7739248 6.4829147-11.4 7.26-.1319212.0274431-.2680788.0274431-.4 0-4.6260752-.7770853-8.7394035-3.3966259-11.4-7.26-5.416-7.892-4.694-19.678-3.782-26 .0685847-.4748403.4647341-.8340605.944-.856 4.9364487-.1207078 9.7388405-1.6308132 13.856-4.357.3462993-.2452843.8097007-.2452843 1.156 0 4.1172065 2.7260881 8.9195692 4.2361844 13.856 4.357.4792659.0219395.8754153.3811597.944.856.916 6.321 1.638 18.108-3.774 26z"/><path id="Shape" d="m40 36.931c-.6634928.0919984-1.3365072.0919984-2 0v9.718c.331.088.656.182 1 .257.344-.075.669-.169 1-.257z"/><path id="Shape" d="m36 36.411c-2.0041247-.8166663-3.5943337-2.4068753-4.411-4.411h-5.864c.5196278 3.0351805 1.6519733 5.932733 3.328 8.516 1.6960845 2.5012368 4.1218549 4.4189468 6.947 5.492z"/></g></g></svg>